<svg width="103" height="27" viewBox="0 0 103 27" fill="none" xmlns="http://www.w3.org/2000/svg">
<path d="M0.72 26L9.936 0.799998H14.328L23.544 26H19.368L11.268 3.068H12.96L4.86 26H0.72ZM4.968 19.916L6.084 16.748H18.18L19.296 19.916H4.968ZM31.8305 26.432C29.8385 26.432 28.2425 25.76 27.0425 24.416C25.8425 23.048 25.2425 21.032 25.2425 18.368V8.144H29.2025V17.972C29.2025 19.652 29.5265 20.924 30.1745 21.788C30.8465 22.628 31.7825 23.048 32.9825 23.048C34.3745 23.048 35.4665 22.556 36.2585 21.572C37.0505 20.588 37.4465 19.184 37.4465 17.36V8.144H41.4065V26H37.4465V23.228C36.9185 24.236 36.1745 25.028 35.2145 25.604C34.2785 26.156 33.1505 26.432 31.8305 26.432ZM44.9016 26V8.144H48.8616V10.916C49.2936 10.004 49.8696 9.296 50.5896 8.792C51.3096 8.264 52.1496 8 53.1096 8H55.5936V11.564H52.7136C51.8976 11.564 51.2016 11.792 50.6256 12.248C50.0496 12.68 49.6056 13.364 49.2936 14.3C49.0056 15.236 48.8616 16.424 48.8616 17.864V26H44.9016ZM65.0635 26.432C63.2875 26.432 61.7155 26.048 60.3475 25.28C59.0035 24.488 57.9355 23.396 57.1435 22.004C56.3755 20.612 55.9915 18.992 55.9915 17.144C55.9915 15.296 56.3755 13.664 57.1435 12.248C57.9115 10.808 58.9795 9.692 60.3475 8.9C61.7155 8.108 63.2995 7.712 65.0995 7.712C66.8515 7.712 68.3755 8.096 69.6715 8.864C70.9915 9.632 72.0115 10.664 72.7315 11.96C73.4515 13.256 73.8115 14.708 73.8115 16.316C73.8115 16.556 73.8115 16.82 73.8115 17.108C73.8115 17.372 73.7875 17.672 73.7395 18.008H58.9075V15.344H69.8515C69.7795 14 69.2875 12.932 68.3755 12.14C67.4875 11.348 66.3955 10.952 65.0995 10.952C64.1635 10.952 63.2995 11.168 62.5075 11.6C61.7155 12.008 61.0795 12.62 60.5995 13.436C60.1195 14.228 59.8795 15.248 59.8795 16.496V17.504C59.8795 18.704 60.1195 19.736 60.5995 20.6C61.0795 21.44 61.7035 22.076 62.4715 22.508C63.2635 22.94 64.1275 23.156 65.0635 23.156C66.1195 23.156 67.0075 22.916 67.7275 22.436C68.4475 21.956 68.9755 21.308 69.3115 20.492H73.3075C72.9955 21.62 72.4555 22.64 71.6875 23.552C70.9435 24.44 70.0075 25.148 68.8795 25.676C67.7755 26.18 66.5035 26.432 65.0635 26.432ZM76.8946 26V0.079999H80.8546V26H76.8946ZM93.0555 26.432C91.2795 26.432 89.6835 26.048 88.2675 25.28C86.8515 24.488 85.7235 23.384 84.8835 21.968C84.0675 20.552 83.6595 18.92 83.6595 17.072C83.6595 15.2 84.0675 13.568 84.8835 12.176C85.7235 10.76 86.8515 9.668 88.2675 8.9C89.7075 8.108 91.3035 7.712 93.0555 7.712C94.8555 7.712 96.4515 8.108 97.8435 8.9C99.2595 9.668 100.376 10.76 101.191 12.176C102.032 13.568 102.452 15.2 102.452 17.072C102.452 18.92 102.032 20.552 101.191 21.968C100.376 23.384 99.2595 24.488 97.8435 25.28C96.4275 26.048 94.8315 26.432 93.0555 26.432ZM93.0195 23.012C94.0035 23.012 94.8915 22.796 95.6835 22.364C96.4995 21.908 97.1475 21.248 97.6275 20.384C98.1075 19.496 98.3475 18.392 98.3475 17.072C98.3475 15.752 98.1075 14.66 97.6275 13.796C97.1475 12.908 96.4995 12.248 95.6835 11.816C94.8915 11.36 94.0275 11.132 93.0915 11.132C92.1315 11.132 91.2435 11.36 90.4275 11.816C89.6115 12.248 88.9635 12.908 88.4835 13.796C88.0035 14.66 87.7635 15.752 87.7635 17.072C87.7635 18.392 88.0035 19.496 88.4835 20.384C88.9635 21.248 89.5995 21.908 90.3915 22.364C91.2075 22.796 92.0835 23.012 93.0195 23.012Z" fill="#171717"/>
</svg>
